<svg width="30" height="30" viewBox="0 0 30 30" fill="none" xmlns="http://www.w3.org/2000/svg">
<path d="M27 27.0703H24.875C24.1875 27.0703 23.625 26.5078 23.625 25.8203V24.1328H28.25V25.8203C28.25 26.5078 27.6875 27.0703 27 27.0703Z" fill="#ACB3BA"/>
<path d="M23.5625 25.5703H27.375C27.6875 25.5703 27.9375 25.5077 28.1875 25.3828V24.0703H23.5626L23.5625 25.5703Z" fill="#94A6B2"/>
<path d="M2.93748 27.0703H5.0625C5.74998 27.0703 6.31248 26.5078 6.31248 25.8203V24.1328H1.6875V25.8203C1.6875 26.5078 2.25 27.0703 2.93748 27.0703Z" fill="#ACB3BA"/>
<path d="M6.31248 25.5703H2.50002C2.18754 25.5703 1.93752 25.5077 1.6875 25.3828V24.0703H6.31248V25.5703Z" fill="#94A6B2"/>
<path d="M4.06248 13.0078H1.56252C0.68748 13.0078 0 12.3203 0 11.4453C0 10.5703 0.68748 9.88275 1.56252 9.88275H4.06254V13.0078H4.06248Z" fill="#FF7058"/>
<path d="M25.9376 13.0078H28.4376C29.3126 13.0078 30 12.3203 30 11.4453C30 10.5703 29.3126 9.88275 28.4375 9.88275H25.9375V13.0078H25.9376Z" fill="#FF7058"/>
<path d="M23.1875 3.82027C17.8125 2.63275 12.1875 2.63275 6.75 3.82027C5.37498 4.13275 4.24998 5.44525 3.9375 6.94525C3.25002 10.2577 2.56248 13.3828 1.875 16.3202C10.5625 16.3202 19.3125 16.3202 28 16.3202C27.3125 13.3828 26.625 10.2577 25.9375 6.94525C25.6875 5.50777 24.5 4.13275 23.1875 3.82027Z" fill="#FF6673"/>
<path d="M25.75 12.0703C25.4376 10.5703 25.0626 8.94533 24.6876 7.19531C24.5001 6.19529 23.6875 5.25779 22.8751 5.07029C20.2501 4.50779 17.6251 4.19531 14.9376 4.19531C14.5 4.19531 14.125 4.19531 13.6876 4.19531C13.0626 4.19531 12.4376 4.25783 11.7501 4.32029C11.125 4.38281 10.5001 4.44527 9.87506 4.50779C9.43754 4.57031 9.00008 4.63277 8.56256 4.69529C8.12504 4.88279 7.56254 5.00777 7.06256 5.13281C6.25004 5.32031 5.43752 6.19529 5.25002 7.19531C5.12504 7.94531 4.93754 8.69531 4.8125 9.38279C4.68752 10.0078 4.56248 10.6328 4.4375 11.1953C4.37498 11.5078 4.31252 11.7578 4.25 12.0703L25.75 12.0703Z" fill="#54C0EB"/>
<path d="M9.93748 4.63281L4.375 11.2578C4.49998 10.6953 4.62502 10.0703 4.75 9.44529L8.62498 4.82031C9.0625 4.75779 9.49996 4.69527 9.93748 4.63281Z" fill="white"/>
<path d="M7.18754 12.0703L13.75 4.25781C13.125 4.25781 12.5001 4.32033 11.8125 4.38279L5.375 12.0703H7.18754Z" fill="white"/>
<path d="M27.9998 24.6328H1.87482C0.999836 24.6328 0.312297 23.8203 0.437336 22.9453V16.9453C0.812336 14.8203 2.62482 13.3203 4.74984 13.3203H25.1248C27.2498 13.3203 29.0623 14.8203 29.4373 16.9453V22.9453C29.6248 23.8203 28.9373 24.6328 27.9998 24.6328Z" fill="#CDD6E0"/>
<path d="M27.9998 24.6328H1.87482C0.999836 24.6328 0.312297 23.8203 0.437336 22.9453V16.9453C0.562317 16.1328 0.937317 15.3828 1.49982 14.8203C2.31234 13.8828 3.4998 13.3203 4.74984 13.3203H25.1248C26.4373 13.3203 27.6248 13.8828 28.3748 14.8203C28.8748 15.3828 29.2498 16.1328 29.3749 16.9453V22.9453C29.6248 23.8203 28.9373 24.6328 27.9998 24.6328Z" fill="#FF6673"/>
<path d="M5.75 22.4453C7.19975 22.4453 8.375 21.2701 8.375 19.8203C8.375 18.3706 7.19975 17.1953 5.75 17.1953C4.30025 17.1953 3.125 18.3706 3.125 19.8203C3.125 21.2701 4.30025 22.4453 5.75 22.4453Z" fill="#FFD15C"/>
<path d="M24.1875 22.4453C25.6372 22.4453 26.8125 21.2701 26.8125 19.8203C26.8125 18.3706 25.6372 17.1953 24.1875 17.1953C22.7378 17.1953 21.5625 18.3706 21.5625 19.8203C21.5625 21.2701 22.7378 22.4453 24.1875 22.4453Z" fill="#FFD15C"/>
<path d="M24.1875 17.7578C25.5625 17.7578 26.625 18.7579 26.75 20.0704C26.75 19.9454 26.75 19.8829 26.75 19.7579C26.75 18.3204 25.5625 17.1329 24.125 17.1329C22.6875 17.1329 21.5 18.3204 21.5 19.7579C21.5 19.8829 21.5 19.9454 21.5 20.0704C21.75 18.8203 22.8125 17.7578 24.1875 17.7578Z" fill="#F8B64C"/>
<path d="M5.75002 17.7578C7.12504 17.7578 8.18752 18.7579 8.3125 20.0704C8.3125 19.9454 8.3125 19.8829 8.3125 19.7579C8.3125 18.3204 7.12498 17.1329 5.6875 17.1329C4.25002 17.1329 3.0625 18.3204 3.0625 19.7579C3.0625 19.8829 3.0625 19.9454 3.0625 20.0704C3.31252 18.8203 4.37506 17.7578 5.75002 17.7578Z" fill="#F8B64C"/>
<path d="M17.75 21.5703C15.875 21.3828 14 21.3828 12.125 21.5703C11.125 21.6953 10.25 20.8829 10.25 19.9454V19.8828C10.25 19.0079 10.875 18.1953 11.8125 18.1328C13.875 17.9453 16 17.9453 18.0625 18.1328C18.9375 18.1953 19.6251 19.0078 19.6251 19.8828C19.6251 19.8828 19.6251 19.8828 19.6251 19.9454C19.625 20.9454 18.75 21.6954 17.75 21.5703Z" fill="#FF7058"/>
</svg>
